<?xml version="1.0" standalone="no"?>
<!DOCTYPE svg PUBLIC "-//W3C//DTD SVG 20010904//EN"
 "http://www.w3.org/TR/2001/REC-SVG-20010904/DTD/svg10.dtd">
<svg version="1.0" xmlns="http://www.w3.org/2000/svg"
 width="600.000000pt" height="600.000000pt" viewBox="0 0 600.000000 600.000000"
 preserveAspectRatio="xMidYMid meet">
<metadata>
Created by potrace 1.11, written by Peter Selinger 2001-2013
</metadata>
<g transform="translate(0.000000,600.000000) scale(0.100000,-0.100000)"
fill="#000000" stroke="none">
<path d="M0 3000 l0 -3000 3000 0 3000 0 0 3000 0 3000 -3000 0 -3000 0 0
-3000z m2267 989 c273 -38 465 -199 529 -444 26 -98 26 -313 0 -410 -47 -177
-145 -296 -310 -375 -143 -68 -184 -73 -598 -78 l-368 -4 0 -409 0 -409 -185
0 -185 0 0 1070 0 1070 519 0 c319 0 550 -4 598 -11z m1253 -414 l0 -425 485
0 485 0 0 425 0 425 190 0 190 0 0 -1070 0 -1070 -190 0 -190 0 0 485 0 485
-485 -2 -486 -3 1 -482 0 -483 -190 0 -190 0 0 1070 0 1070 190 0 190 0 0
-425z"/>
<path d="M1527 3693 c-4 -3 -7 -163 -7 -355 l0 -349 333 3 332 3 65 31 c111
54 170 129 190 244 20 112 -4 229 -64 310 -45 61 -117 96 -226 110 -92 11
-613 14 -623 3z"/>
</g>
</svg>
